<svg version="1.1" xmlns="http://www.w3.org/2000/svg" xmlns:xlink="http://www.w3.org/1999/xlink" width="640px" height="512px" viewBox="0,0,256,204.8"><g fill="#feff00" fill-rule="nonzero" stroke="none" stroke-width="1" stroke-linecap="butt" stroke-linejoin="miter" stroke-miterlimit="10" stroke-dasharray="" stroke-dashoffset="0" font-family="none" font-weight="none" font-size="none" text-anchor="none" style="mix-blend-mode: normal"><g transform="translate(0,0)"><g><g transform="scale(0.4,0.4)"><path d="M96,64c0,-17.7 14.3,-32 32,-32h32c17.7,0 32,14.3 32,32v160v64v160c0,17.7 -14.3,32 -32,32h-32c-17.7,0 -32,-14.3 -32,-32v-64h-32c-17.7,0 -32,-14.3 -32,-32v-64c-17.7,0 -32,-14.3 -32,-32c0,-17.7 14.3,-32 32,-32v-64c0,-17.7 14.3,-32 32,-32h32zM544,64v64h32c17.7,0 32,14.3 32,32v64c17.7,0 32,14.3 32,32c0,17.7 -14.3,32 -32,32v64c0,17.7 -14.3,32 -32,32h-32v64c0,17.7 -14.3,32 -32,32h-32c-17.7,0 -32,-14.3 -32,-32v-160v-64v-160c0,-17.7 14.3,-32 32,-32h32c17.7,0 32,14.3 32,32zM416,224v64h-192v-64z"></path></g></g></g></g></svg>