<svg version="1.1" xmlns="http://www.w3.org/2000/svg" xmlns:xlink="http://www.w3.org/1999/xlink" width="512.000000pt" height="512.000000pt" viewBox="0,0,256,256"><g fill="#ffb000" fill-rule="nonzero" stroke="none" stroke-width="1" stroke-linecap="butt" stroke-linejoin="miter" stroke-miterlimit="10" stroke-dasharray="" stroke-dashoffset="0" font-family="none" font-weight="none" font-size="none" text-anchor="none" style="mix-blend-mode: normal"><g transform="translate(0.12164,0.01252) scale(0.5,0.5)"><g transform="translate(0,512) scale(0.1,-0.1)"><path d="M4155,5064c-65,-10 -172,-38 -228,-61c-58,-24 -868,-486 -957,-546c-109,-74 -215,-198 -279,-324c-32,-64 -81,-219 -81,-257c0,-17 -60,-56 -335,-214c-184,-107 -342,-203 -350,-215c-21,-30 -19,-80 6,-111c11,-14 56,-52 100,-83c79,-56 79,-57 79,-102c1,-100 18,-175 45,-198c50,-44 74,-35 353,125l257,148l86,-85c250,-251 613,-328 934,-198c85,35 879,490 980,562c152,108 262,267 322,462c23,77 26,106 27,228c0,106 -4,157 -18,210c-41,154 -110,278 -215,388c-120,126 -255,206 -416,247c-77,20 -249,33 -310,24zM4422,4844c333,-85 548,-426 484,-764c-29,-155 -128,-318 -243,-403c-62,-45 -848,-501 -929,-538c-183,-84 -409,-74 -592,28c-58,32 -192,146 -192,163c0,4 43,29 95,56c67,34 100,45 109,39c51,-39 118,-78 166,-97c73,-28 211,-29 287,-2c28,11 239,127 469,259c466,268 520,308 574,419c62,131 62,267 -2,396c-101,205 -359,301 -566,210c-77,-34 -866,-494 -902,-526c-29,-25 -49,-33 -119,-43c-46,-7 -111,-21 -145,-31c-33,-11 -62,-18 -64,-16c-2,2 10,31 27,63c39,77 106,159 172,210c69,52 898,530 964,556c123,47 276,55 407,21zM4350,4423c109,-44 169,-172 135,-289c-25,-87 -62,-117 -348,-282l-258,-149l-92,92c-95,94 -163,140 -280,189c-37,16 -66,30 -65,31c8,6 668,385 698,400c68,36 136,38 210,8zM3390,3814c94,-31 201,-98 269,-167l43,-45l-71,-42c-138,-80 -235,-75 -341,17l-54,48h-81c-101,0 -109,-4 -524,-244c-234,-136 -316,-179 -322,-169c-5,7 -9,28 -9,46c0,34 -26,68 -80,105c-15,10 -20,20 -15,25c25,22 681,395 727,413c145,57 310,62 458,13z"></path><path d="M1530,4229c-36,-15 -60,-49 -60,-89c0,-27 19,-64 79,-158c43,-67 87,-129 97,-137c34,-25 92,-19 125,14c49,50 42,84 -48,222c-42,66 -84,126 -93,134c-22,20 -69,27 -100,14z"></path><path d="M785,3796c-32,-32 -40,-69 -25,-107c7,-16 66,-79 131,-140c108,-99 122,-109 156,-109c63,1 110,54 99,114c-6,30 -114,146 -219,234c-49,41 -106,44 -142,8z"></path><path d="M518,3014c-15,-8 -32,-23 -38,-34c-18,-33 -12,-87 13,-114c27,-31 263,-126 312,-126c48,0 85,34 92,86c8,62 -19,85 -176,149c-143,59 -161,62 -203,39z"></path><path d="M4149,2611c-39,-40 -40,-89 -1,-130c28,-30 260,-131 302,-131c29,0 77,26 90,49c21,39 1,120 -32,134c-164,69 -268,107 -296,107c-24,0 -42,-8 -63,-29z"></path><path d="M2631,2523c-8,-3 -110,-86 -226,-183c-116,-98 -221,-183 -232,-190c-17,-11 -27,-7 -81,37c-247,199 -611,237 -906,94c-101,-49 -107,-54 -526,-405c-390,-326 -435,-367 -495,-451c-249,-348 -211,-818 92,-1118c318,-315 807,-339 1160,-57c66,52 84,99 58,149c-19,37 -70,63 -106,54c-13,-3 -53,-28 -88,-54c-131,-100 -256,-143 -416,-143c-298,1 -547,186 -637,474c-30,97 -32,272 -4,364c24,80 69,169 119,235c35,45 651,574 826,709c96,74 267,132 389,132c123,0 262,-42 369,-112l78,-51l-50,-44c-28,-24 -68,-55 -91,-69l-41,-24l-65,30c-161,75 -327,59 -463,-45c-90,-69 -719,-601 -758,-641c-84,-87 -130,-236 -109,-359c57,-343 453,-495 721,-277c205,165 725,608 752,640c27,32 50,45 112,66c43,14 105,40 139,57l61,31l-6,-29c-19,-95 -85,-215 -170,-309c-39,-43 -47,-59 -47,-91c0,-49 21,-78 66,-93c48,-16 82,-1 143,65c137,150 214,334 228,543l6,94l293,245c320,268 329,278 300,346c-12,30 -30,43 -117,89c-94,48 -104,56 -112,88c-31,131 -48,171 -80,190c-32,20 -59,24 -86,13zM2621,2208c13,-52 37,-80 90,-103c21,-10 39,-21 38,-24c0,-3 -141,-123 -312,-265c-330,-275 -400,-322 -522,-353c-104,-26 -259,-24 -355,6c-77,23 -173,72 -224,114l-29,23l69,58c117,96 209,108 321,38c73,-45 133,-47 217,-9c70,32 107,61 431,336c143,121 261,220 262,220c1,1 7,-18 14,-41zM1222,1420c81,-65 208,-126 321,-154l90,-22l-302,-255c-166,-140 -325,-267 -352,-283c-88,-50 -210,-33 -283,40c-50,51 -70,102 -70,174c1,116 2,117 378,433c77,64 143,117 148,117c4,0 36,-22 70,-50z"></path><path d="M3921,1926c-30,-17 -50,-53 -51,-91c0,-25 19,-49 123,-151c76,-76 132,-123 148,-126c47,-9 92,13 112,54c30,60 14,87 -123,216c-103,96 -125,112 -153,112c-17,-1 -43,-7 -56,-14z"></path><path d="M3251,1524c-26,-21 -31,-33 -31,-67c0,-35 12,-61 79,-163c43,-66 89,-128 102,-137c62,-44 149,8 149,89c0,31 -140,254 -178,285c-35,27 -84,24 -121,-7z"></path><path d="M1700,739c-65,-26 -81,-110 -31,-160c72,-72 192,1 161,97c-18,54 -79,84 -130,63z"></path></g></g></g></svg>